<?xml version="1.0" encoding="utf-8"?>
<!-- Generator: Adobe Illustrator 19.0.0, SVG Export Plug-In . SVG Version: 6.00 Build 0)  -->
<svg version="1.1" id="Layer_1" xmlns="http://www.w3.org/2000/svg" xmlns:xlink="http://www.w3.org/1999/xlink" x="0px" y="0px"
	 viewBox="0 0 250 47" style="enable-background:new 0 0 250 47;" xml:space="preserve">
<style type="text/css">
	.st0{fill:url(#XMLID_25_);}
	.st1{fill:url(#XMLID_26_);}
	.st2{fill:url(#XMLID_27_);}
	.st3{fill:url(#XMLID_28_);}
	.st4{fill:url(#XMLID_29_);}
	.st5{fill:url(#XMLID_30_);}
	.st6{fill:url(#XMLID_31_);}
	.st7{fill:url(#XMLID_32_);}
	.st8{fill:url(#XMLID_33_);}
	.st9{opacity:0.75;}
	.st10{fill:#001F51;}
</style>
<g id="XMLID_59_">
	<linearGradient id="XMLID_25_" gradientUnits="userSpaceOnUse" x1="16.1177" y1="-8.5712" x2="16.1177" y2="44.995">
		<stop  offset="0" style="stop-color:#78D2F7"/>
		<stop  offset="0.9286" style="stop-color:#1670B9"/>
	</linearGradient>
	<path id="XMLID_79_" class="st0" d="M1,0.3h14.1c9.3,0,16.2,5.5,16.2,15.7c0,10.1-6.9,15.6-16.2,15.6H1V0.3z M8.7,7v17.9h6
		c5.1,0,8.5-3.2,8.5-8.9c0-5.8-3.5-9-8.5-9H8.7z"/>
	<linearGradient id="XMLID_26_" gradientUnits="userSpaceOnUse" x1="38.4248" y1="-8.5707" x2="38.4248" y2="44.9947">
		<stop  offset="0" style="stop-color:#78D2F7"/>
		<stop  offset="0.9286" style="stop-color:#1670B9"/>
	</linearGradient>
	<path id="XMLID_77_" class="st1" d="M34.8,6.2H42v25.4h-7.2V6.2z"/>
	<linearGradient id="XMLID_27_" gradientUnits="userSpaceOnUse" x1="57.7926" y1="-8.5707" x2="57.7926" y2="44.9947">
		<stop  offset="0" style="stop-color:#78D2F7"/>
		<stop  offset="0.9286" style="stop-color:#1670B9"/>
	</linearGradient>
	<path id="XMLID_75_" class="st2" d="M43.8,6.2h7.9l6.1,18.3L64,6.2h7.8l-9.5,25.4h-9.1L43.8,6.2z"/>
	<linearGradient id="XMLID_28_" gradientUnits="userSpaceOnUse" x1="83.884" y1="-8.5707" x2="83.884" y2="44.9947">
		<stop  offset="0" style="stop-color:#78D2F7"/>
		<stop  offset="0.9286" style="stop-color:#1670B9"/>
	</linearGradient>
	<path id="XMLID_73_" class="st3" d="M73.5,31.6V6.2h20.7v6.2H80.4v3.4h11.1v5.9H80.4v3.7h13.8v6.2H73.5z"/>
	<linearGradient id="XMLID_29_" gradientUnits="userSpaceOnUse" x1="120.1248" y1="-8.5712" x2="120.1248" y2="44.9951">
		<stop  offset="0" style="stop-color:#78D2F7"/>
		<stop  offset="0.9286" style="stop-color:#1670B9"/>
	</linearGradient>
	<path id="XMLID_71_" class="st4" d="M120.1,19.7l-4.9,12h-8.4L95.1,0.6h8.3l8.3,22.5l5.1-12.5l-3.7-10h8.4l7.3,21.2l7.9-21.2h8.4
		l-12,31.1h-8.4L120.1,19.7z"/>
	<linearGradient id="XMLID_30_" gradientUnits="userSpaceOnUse" x1="154.7553" y1="-8.571" x2="154.7553" y2="44.9949">
		<stop  offset="0" style="stop-color:#78D2F7"/>
		<stop  offset="0.9286" style="stop-color:#1670B9"/>
	</linearGradient>
	<path id="XMLID_68_" class="st5" d="M154.7,5.9c7.5,0,13.1,5.6,13.1,13.1c0,7.4-5.6,13-13.1,13c-7.4,0-13-5.6-13-13
		C141.7,11.5,147.3,5.9,154.7,5.9z M154.8,25.3c3.6,0,6.1-2.8,6.1-6.3c0-3.6-2.5-6.3-6.1-6.3c-3.5,0-6.1,2.8-6.1,6.3
		C148.7,22.5,151.2,25.3,154.8,25.3z"/>
	<linearGradient id="XMLID_31_" gradientUnits="userSpaceOnUse" x1="182.7576" y1="-8.5706" x2="182.7576" y2="44.9946">
		<stop  offset="0" style="stop-color:#78D2F7"/>
		<stop  offset="0.9286" style="stop-color:#1670B9"/>
	</linearGradient>
	<path id="XMLID_65_" class="st6" d="M169.9,6.2h12.9c4.9,0,9.5,2.8,9.5,8.4c0,3.8-2.6,6.6-6.2,7.5c2.2,1.9,4.2,3.7,6.3,3.7
		c0.7,0,1.8-0.1,2.5-0.4l0.7,5.6c-1,0.5-2.6,1-4.3,1c-6,0-10.3-7.2-13.8-9.5h-0.3v9.1h-7.2V6.2z M177.1,12.4v5.2h5
		c1.8,0,2.8-1.2,2.8-2.6c0-1.5-1-2.6-2.8-2.6H177.1z"/>
	<linearGradient id="XMLID_32_" gradientUnits="userSpaceOnUse" x1="207.1682" y1="-8.5707" x2="207.1682" y2="44.9947">
		<stop  offset="0" style="stop-color:#78D2F7"/>
		<stop  offset="0.9286" style="stop-color:#1670B9"/>
	</linearGradient>
	<path id="XMLID_63_" class="st7" d="M197.5,31.6V6.2h7.2v19.2h12.2v6.2H197.5z"/>
	<linearGradient id="XMLID_33_" gradientUnits="userSpaceOnUse" x1="231.6906" y1="-8.5707" x2="231.6906" y2="44.9947">
		<stop  offset="0" style="stop-color:#78D2F7"/>
		<stop  offset="0.9286" style="stop-color:#1670B9"/>
	</linearGradient>
	<path id="XMLID_60_" class="st8" d="M219.2,6.2h11.8c7.5,0,13.1,4.5,13.1,12.7c0,8.2-5.6,12.7-13.1,12.7h-11.8V6.2z M226.4,12.4v13
		h4.3c3.6,0,6-2.4,6-6.5c0-4.2-2.4-6.5-6-6.5H226.4z"/>
</g>
<g id="XMLID_24_" class="st9">
	<g id="XMLID_163_">
		<path id="XMLID_178_" class="st10" d="M165.2,41.9h-4.7v4.3h-3.2V35h3.2v4.2h4.7V35h3.2v11.2h-3.2V41.9z"/>
		<path id="XMLID_176_" class="st10" d="M173.6,41.2c0,1.5,0.7,2.3,2.1,2.3c1.4,0,2.2-0.9,2.2-2.4V35h3.2v6.3c0,2.7-1.9,5-5.3,5
			c-3.4,0-5.3-2.1-5.3-5V35h3.2V41.2z"/>
		<path id="XMLID_174_" class="st10" d="M186.2,40.1v6.2H183V35h2.7l5.1,6.2V35h3.2v11.2h-2.8L186.2,40.1z"/>
		<path id="XMLID_172_" class="st10" d="M206.4,39.6v5.2c-1,0.8-3.2,1.6-4.9,1.6c-3.3,0-6-2.1-6-5.8c0-3.6,2.7-5.8,6-5.8
			c1.8,0,3.3,0.6,4.4,1.5l-1.4,2.4c-0.8-0.6-1.8-1-2.9-1c-1.6,0-2.8,1-2.8,2.9c0,1.8,1.2,2.8,2.9,2.8c0.6,0,1.2-0.1,1.8-0.4v-1.3
			H201v-2.2H206.4z"/>
		<path id="XMLID_169_" class="st10" d="M210.9,35h3.7l4.2,11.2h-3.2l-0.7-1.9h-4.4l-0.7,1.9h-3.2L210.9,35z M211.3,42h2.8l-1.4-3.9
			L211.3,42z"/>
		<path id="XMLID_166_" class="st10" d="M219.6,35h5.7c2.1,0,4.2,1.2,4.2,3.7c0,1.7-1.1,2.9-2.7,3.3c1,0.8,1.9,1.6,2.8,1.6
			c0.3,0,0.8-0.1,1.1-0.2l0.3,2.5c-0.5,0.2-1.2,0.4-1.9,0.4c-2.6,0-4.6-3.2-6.1-4.2h-0.1v4h-3.2V35z M222.7,37.8V40h2.2
			c0.8,0,1.2-0.5,1.2-1.1c0-0.6-0.4-1.2-1.2-1.2H222.7z"/>
		<path id="XMLID_164_" class="st10" d="M233.9,42l-4.2-6.8V35h3.5l2.2,4.1l2.2-4.1h3.5v0.2L237,42v4.2h-3.2V42z"/>
	</g>
</g>
</svg>
