<?xml version="1.0" encoding="utf-8"?>
<!-- Generator: Adobe Illustrator 19.0.0, SVG Export Plug-In . SVG Version: 6.00 Build 0)  -->
<svg version="1.1" id="Layer_1" xmlns="http://www.w3.org/2000/svg" xmlns:xlink="http://www.w3.org/1999/xlink" x="0px" y="0px"
	 viewBox="0 0 274 85" style="enable-background:new 0 0 274 85;" xml:space="preserve">
<style type="text/css">
	.st0{fill:#0894BA;}
	.st1{fill:#ED1C24;}
	.st2{fill:#FFFFFF;}
</style>
<g id="XMLID_56_">
	<g id="XMLID_62_">
		<path id="XMLID_80_" class="st0" d="M53.6,1.4c7.5,1.8,14.4,4.9,20,9.6c2.6,2.3,4.2,2.8,0.1,2.8h-4c-3.3,0-3.2,0.1-5.4-2.2
			c-3-3.1-6.5-5.8-10.7-8C47.7,0.6,51.3,0.8,53.6,1.4L53.6,1.4L53.6,1.4z M13.6,33.2c-0.4-0.4-0.7-0.6-0.5-1
			c0.3-0.6,1.2-0.6,1.6,0.4c0.3,0.8,0.4,1.9-0.5,4c-0.3,0.6-0.7-1-0.4-1.8C13.9,34.4,14.1,33.8,13.6,33.2L13.6,33.2L13.6,33.2z
			 M47.3,57.1h6.3c0.1,0.5-0.4,0.8-1.3,0.9c-2.4,0-3.6,0.1-3.9,0.4c-1,0.6-1.5,0.5-1.4-0.3C47,57.8,47.1,57.5,47.3,57.1L47.3,57.1
			L47.3,57.1z M60.2,13.8h-3.6c-3.2,0-2.8,0-4.2-2.9c-1-2.1-2.1-4.2-3.4-6C46.6,1.5,49,3,51.8,4.4c3.6,1.8,6.9,4.1,9.8,6.9
			C64,13.7,63,13.8,60.2,13.8L60.2,13.8L60.2,13.8z M50.2,13.8H39.5c-2,0.1-1.1-1.6-0.7-2.4c1.2-2.4,2.5-4.7,3.9-6.8
			C44,2.8,44.9,2,46.8,4.5c1.3,1.9,2.5,3.9,3.6,6C50.8,11.2,51.9,13.8,50.2,13.8L50.2,13.8L50.2,13.8z M35.1,13.8h-7.5
			c-1,0-0.6-0.8-0.4-1.1c3.6-3.9,8.1-7.2,13.5-9.5c0.2-0.2,1.1-0.3,0.6,0.4c-1.9,2.9-3.6,5.9-5,9.1C35.9,13.5,36,13.8,35.1,13.8
			L35.1,13.8L35.1,13.8z M22.6,13.8h-7.3c-2.5,0-2.1-0.8,0.4-2.8C21.6,6,29,2.5,37.1,1.1c4.8-0.7,1.8,1.1,1.5,1.2
			c-5.7,2.4-10.4,6.1-14.1,10.5C23.8,13.7,23.8,13.8,22.6,13.8L22.6,13.8L22.6,13.8z M80,17.7c1.6,2.1,2.9,4.3,4.1,6.6
			c1.7,3.5,1.9,3.2-1.9,3.2h-5.6c-3.7,0-3-0.1-4.3-3.5c-0.9-2.2-1.9-4.3-3.2-6.3c-1.8-3-2.2-2.5,1.5-2.5h4.3
			C77.9,15.3,78.1,15.3,80,17.7L80,17.7L80,17.7z M68.7,27.6h-7.5c-3.8,0-3.2,0.2-4-3.4c-0.5-2.1-1.1-4.3-1.8-6.3
			c-1-3-1.3-2.6,1.9-2.6h4.9c3,0,3.1-0.1,4.8,2.5c1.4,2.1,2.6,4.3,3.5,6.6C71.9,27.7,72.2,27.6,68.7,27.6L68.7,27.6L68.7,27.6z
			 M51.9,27.6H36.7c-3.9,0-3.7,0.4-2.6-3.5c0.6-2.2,1.3-4.3,2-6.4c0.7-2.2,1.3-2.4,3.8-2.4h9c3.7,0,3.6-0.4,4.8,3.1
			c0.6,1.9,1.2,3.8,1.7,5.8C56.3,28.4,56,27.6,51.9,27.6L51.9,27.6L51.9,27.6z M28.5,27.6h-5c0-0.1,0-0.1,0.1-0.2
			c3.2-0.8,4.4-3.6,3.1-6.5c-2,1.3-3.4,2.1-4.3,2.5c0.2-1.1-0.2-1.9-1.3-2.2c0.8-1.5,1.7-3,2.7-4.4c1-1.5,1.1-1.4,2.9-1.4H33
			c2.8,0,2.2,0,1.3,2.4c-0.8,2.2-1.5,4.3-2,6.6C31.4,27.6,32,27.6,28.5,27.6L28.5,27.6L28.5,27.6z M9.3,27.6h-3
			c-2.3,0-2.3-0.8-1.3-2.9c1.4-2.9,3.1-5.5,5.1-8c1.4-1.7,1.9-1.4,4.1-1.4h6.1c2,0,1.8,0.6,1,1.8c-1,1.6-1.9,3.3-2.7,5
			c-1.3-0.2-3.6-0.1-5.1,0c-2.9,0.3-4.3,2-4.2,5.4C9.3,27.5,9.3,27.5,9.3,27.6L9.3,27.6L9.3,27.6z M87.1,32.5
			c0.4,1.7,0.7,3.4,0.9,5.1c0.5,3.9,0.9,4-2.9,4h-6.5c-4.1,0-2.9-0.5-3.2-4.3c-0.1-1.7-0.4-3.4-0.7-5.1c-0.7-3.6-1-3,2.8-3h5.2
			C86.2,29.1,86.2,28.8,87.1,32.5L87.1,32.5L87.1,32.5z M64,41.6h-1.5c-4.3,0-3.4,0-3.6-4.1c-0.1-1.8-0.2-3.5-0.4-5.2
			c-0.4-3.5-0.8-3.1,2.8-3.1h7.4c3.4,0,3.4-0.4,4.1,3.1c0.4,1.7,0.6,3.5,0.8,5.3c0.2,2.8,0.5,3.7-0.6,4c-2.5-2.2-5.8-4.5-8-2.3
			C64.7,40.3,64.4,41.1,64,41.6L64,41.6L64,41.6z M53.6,41.6H42.9l-0.2-0.1c-3-1.6-7.2-3.5-10.7-2.4l-0.2-0.4c0-0.3,0-0.7,0.1-1.1
			c0.1-1.8,0.3-3.6,0.6-5.4c0.5-3.6,0.6-3.1,4.2-3.1h16.2c3.8,0,3.6-0.4,4,3.4c0.2,1.7,0.3,3.3,0.4,5C57.4,41.8,57.7,41.6,53.6,41.6
			L53.6,41.6L53.6,41.6z M18.8,41.6h-0.1c-0.4,0-0.8,0-1.1,0c-0.2,0-0.4-0.2-0.5-0.4c-0.3-0.4-0.7-0.8-1.1-1.2c-0.3-2.4,0.2-4.7,1-7
			c2.6,0.5,4.7-1.5,5.9-3.8h5.7c3.2,0,2.5,0.1,2,3.1c-0.1,1-0.3,2-0.4,3.1c-0.1-0.1-0.1-0.1-0.1-0.2c-2.8-1.2-5.3-0.9-7.5,0.7
			c-2.1-1.8-4.9,3.5-3.9,4.2C19.5,40.5,19.4,41.6,18.8,41.6L18.8,41.6L18.8,41.6z M10.5,41.6H4.3c-3.8,0-3.5,0-3-3.9
			c0.2-1.9,0.6-3.7,1-5.5c0.8-3.2,0.8-3,4-3h3c-0.1,1-0.4,2-1,3C6.3,35.7,9.3,38.4,10.5,41.6L10.5,41.6L10.5,41.6z M88.1,46.7
			c-0.2,1.9-0.6,3.8-1,5.6c-0.9,3.4-0.8,3.2-4.2,3.2h-1.6c1.3-0.7,2.1-1.7,1.4-3.4c-1.9-2.9-4.2-5.8-7.1-8.5l0,0
			c0.3-0.6,1-0.6,3.1-0.6h6.6C88.8,43.1,88.5,43.1,88.1,46.7L88.1,46.7L88.1,46.7z M70.7,55.5c-0.1,0-0.2,0-0.3,0
			c-0.2,0-0.4,0-0.6,0H61c-1.1,0.1-1.9-0.4-2.4-1.5c-0.3-1.4,0-2.7,0.7-3.9c2.2-2.2,4.7-3.5,7.5-3.7c2.6,0,4.3,2.1,5.1,6.3
			C72.4,54.4,72,55.3,70.7,55.5L70.7,55.5L70.7,55.5z M53.2,55.6H50c2-1,4.1-2.1,6.4-3.2c-0.2,1.4-0.2,2.2-0.5,2.6
			c-0.2,0.2-0.5,0.4-0.9,0.5C54.6,55.6,54,55.6,53.2,55.6L53.2,55.6L53.2,55.6z M46.6,43.1h6.8c2.5,0,3.4-0.2,3.7,0.6
			c-0.2,0.1-0.3,0.2-0.5,0.3c-1.1,1-3.9,4.5-5.2,1.9C51.2,45.3,49.6,44.4,46.6,43.1L46.6,43.1L46.6,43.1z M28.1,55.6h-7.2
			c-3.4,0-3.2,0.2-3.9-3.3c0-0.1-0.1-0.3-0.1-0.4c0.2,0,0.4-0.1,0.6-0.1c3.5,1.2,6.9,2.5,10.3,3.7c0.2,0,0.3,0.1,0.5,0.1H28.1
			L28.1,55.6L28.1,55.6z M13.3,55.6H6.4c-3.3,0-3.2,0.3-4.1-3c-0.5-1.9-0.9-3.9-1.1-5.9c-0.4-3.8-0.7-3.6,3-3.6H11l0,0.1
			c0.1,2.5,1.3,7.4,4.2,8.5c0,0.2,0.1,0.4,0.1,0.6C15.9,55.5,16.8,55.6,13.3,55.6L13.3,55.6L13.3,55.6z M84.2,60
			c-1.2,2.5-2.6,4.8-4.2,7c-2.1,2.7-2.6,2.4-6,2.4h-4.2c-3.5,0-3.5,0.5-1.6-2.5c0.7-1,1.3-2.1,1.8-3.2c3.7,0.7,9.8,1.8,9.8-1.7
			c-0.2-1.3-1.3-1.9-3.3-1.9c-2-0.1-3.6-0.2-4.7,0l0-0.1l0,0c1.3-3.1,0.9-2.8,4.3-2.8h6.2C85.8,57.1,85.8,56.7,84.2,60L84.2,60
			L84.2,60z M61.6,69.3h-4.7c-3.4,0-3.3,0.6-2.2-2.6c0.5-1.5,1-3.1,1.5-4.7c0.2,0,0.4-0.1,0.6-0.1c3.5-0.3,7.3,0.1,11.4,1.4
			c0.1,0,0.2,0,0.4,0c-0.6,1.2-1.3,2.3-2.1,3.5C64.7,69.5,64.7,69.3,61.6,69.3L61.6,69.3L61.6,69.3z M64,57.1h4.8c1.1,0,1.7,0,2,0.1
			c0.1,0.1,0.2,0.2,0.2,0.3c0.1,0.3-0.2,0.9-0.7,2C68.1,59.2,65.9,58.4,64,57.1L64,57.1L64,57.1z M49,69.3h-9c-2.9-0.1-3,0.2-4-2.5
			c-0.8-2.2-1.5-4.4-2-6.6c-0.7-2.6-0.9-3.1,0.5-3.1c0.3,0.1,0.7,0.2,1,0.2c1.9,3.1,3.8,5.6,5.9,7.1c3.1,2.3,7.4,1.8,12.7-1.4
			c-0.4,1.2-0.8,2.5-1.2,3.7C51.8,69.5,51.9,69.3,49,69.3L49,69.3L49,69.3z M32.3,69.3h-5c-2.8-0.1-3-0.1-4.6-2.6
			c-1.3-2.1-2.5-4.4-3.4-6.7c-1.4-3.5-1-2.9,2.5-2.9h6.5c3.2,0,2.9-0.4,3.7,2.7c0.6,2.4,1.3,4.8,2.2,7.2
			C35.1,69.7,35.3,69.2,32.3,69.3L32.3,69.3L32.3,69.3z M19.6,69.3h-5.7c-2.7-0.1-3-0.3-4.7-2.5c-1.7-2.2-3.1-4.5-4.3-7
			c-1.6-3.4-1-2.7,2.4-2.7h6.2c3.2,0,2.7-0.1,3.8,2.8c0.9,2.4,2,4.7,3.3,6.9C22.2,69.4,22.9,69.2,19.6,69.3L19.6,69.3L19.6,69.3z
			 M74,73.3c-5.7,5-12.8,8.5-20.7,10c-7.8,1.6-0.9-1.9,0.1-2.5c3.7-2,7-4.6,9.8-7.5c2.5-2.6,2.5-2.5,6.3-2.5h3.1
			C76.1,70.7,77.1,70.7,74,73.3L74,73.3L74,73.3z M36.4,83.4c-8.1-1.5-15.5-5-21.2-10.3c-2.5-2.3-1.2-2.3,1.1-2.3h4.2
			c3.2,0,2.9,0.2,5,2.5c3,3.3,6.6,6.1,10.9,8.1C37.6,82.1,43,84.6,36.4,83.4L36.4,83.4L36.4,83.4z M29.3,70.9h4.1
			c2.6,0,2.3,0,3.4,2.3c1.1,2.3,2.4,4.6,3.8,6.8c2.4,3.8-0.8,1.3-3.1,0.1c-3.6-1.8-6.8-4.2-9.5-6.9C25.3,70.6,26.6,70.8,29.3,70.9
			L29.3,70.9L29.3,70.9z M40.8,70.9h7.5c2,0,2.8,0,1.7,2.4c-1.1,2.3-2.3,4.6-3.6,6.8C45,82.1,44,82.1,42.5,80
			c-1.4-2.2-2.7-4.5-3.8-6.8C37.6,71,37.8,70.9,40.8,70.9L40.8,70.9L40.8,70.9z M56.6,70.9H60c3.6,0,4-0.4,1.2,2.4
			c-2.7,2.7-5.9,5.1-9.4,6.9c-2.5,1.3-6,3.8-3.5-0.1c1.4-2.1,2.6-4.5,3.7-6.8C53.3,70.4,53.3,70.9,56.6,70.9L56.6,70.9L56.6,70.9z"
			/>
		<path id="XMLID_63_" class="st1" d="M37.6,56.5c0.7,0,2.9,0.2,3.2,0.9c-1.7,4.8,3.8,5.3,4.5,2.2c0.2-1-0.8-1.7-0.5-2.5
			c0.2-0.5,0.6-0.3,0.7,0.1c0.4,1,0.9,2.2,1.6,2.6c0.8,0,1.2-1.1,2.5-1.1c2.4,0,4.9,0.2,5.6-1.1c1.8,0.1,4.5,1.7,4.3,2.7
			c-2.7,0.1-5.6,1.2-8.2,2.5c-3.6,1.8-7,3.9-11.1-1.7c0,0-2-2.1-3-4.1C37.2,56.8,37.3,56.5,37.6,56.5L37.6,56.5z M61.9,60.2
			c-0.8-0.6-1.5-2-2.5-2.4c-1.2-0.5-2.4-0.8-3.3-1.4c-0.3-0.2,0-0.6,0.2-0.7c0.8-0.4,1.7-0.4,2.5,0c3,2.1,5.6,3.5,9,4.8
			c3.4,0.8,6.9,1,10.3,1.4c0.2,0,0.4,0.9-0.1,0.9C73,62.7,65.6,62.2,61.9,60.2L61.9,60.2z M76.6,46.6c1.9,2.3,3.9,4.8,5,7.1
			c-1.4,0.4-1.9,1.4-2.8,1.8c-0.6,0.2-1.3,0.5-2,0.2c-1.3-0.5-2.7-0.2-3-0.3c-0.4-2.6-1.3-5.9-2.9-8.3c0-0.4,1.4-0.8,0.6-2.5
			c-1.3-2.1-3.6-2.4-5.3-4.1c0.2-1,2.2-0.9,2.2-0.9C71.6,41.3,74,43.7,76.6,46.6L76.6,46.6z M54,47.5c2.8-2.1,4.6-4.1,9.3-4.4
			c1.2-0.1,0.8-1.2,2.2-1.3c1.3-0.4,4.6,2.4,4.5,3.2c0,1.3-2.4,0.2-3.7,0.3c-1.3,0.4-3,0.6-4.3,1.4c-5.1,3.4-9.9,8.4-15.8,8.5
			c0.2-2.1,1-4.4,0.4-6.8C49.3,48.6,52.4,48.7,54,47.5L54,47.5z M39.7,49.8c-1.7,0-4.5-0.3-5.2-2.4c-0.2-0.6-0.1-1.7,0.4-2
			c2.3-1,6,0.3,8.6,1c1.7,0.4,2.3,1,2.1,3.8c-0.3,2.3-0.4,4.5-1.5,6.7c-0.3,0.3-2.1-0.1-2.2-0.1c-0.7-2,0.1-5.1-0.4-6.5
			C41.4,49.9,40.5,49.9,39.7,49.8L39.7,49.8z M37.5,40.5c4.2,1.9,9.7,4.2,12.9,6.6c0.7,0.3-3.5,0.4-3.9,0.1
			c-3.6-2.2-7.7-2.8-11.4-2.9c-0.2-0.8-2.4-0.6-3-2.5C31.2,39,35.8,39.6,37.5,40.5L37.5,40.5z M34.7,49.1c1.7,1.3,1.8,1.2,5.9,2
			c0,0.3,0.7,4.3-0.1,4.3c-4.4,0.2-9.1,0-12.9-1.3c-2.5-1.3-8.4-1.7-8.1-3.7c0.4-5,1.1-3,4.7-3.1c0.4,0,1.1-0.5,1.4-0.5
			c3.6,0,4.9-1.6,6.4-3.1c0.4-0.4,0.9,0.4,1.7,0.8C33.5,46.1,33,47.8,34.7,49.1L34.7,49.1z M30.6,43.2c-1.9,3.4-5,2.2-6,2.8
			c-1.1,0.6-3,0.4-2.8,0.1c0.8-0.3,1.7-1.2,1.9-2c0.6-0.5,0.8,0.3,2.4-0.8c0.5-0.4,1.8-2.8,1.4-4.3c-0.8-1.3-3.8-2-2.8-2.9
			C28,33.5,33.4,38.7,30.6,43.2L30.6,43.2z M16.2,31.8c-0.4,0-1.3-0.3-1.6-0.4c-0.4-0.2-2.5-1.5-2.9-0.2c0,1.3,1.4,2.1,1.3,3.4
			c-0.8-0.3-3.3,0.1-3.8,0.8c-0.4-1.6,0.7-3,1.2-4.5c0.3-0.6,0.3-1.1,0.4-1.7c0.5-1.4,2.2-2.8,3.6-2.8c2-0.4,3.2,1.2,4.9,1.7
			c0.4,0.1,2.4-0.6,2.3-0.7C22.3,30,19,32,16.2,31.8L16.2,31.8z M22.2,36.4l4.4,3c0.3,0.2,0.3,0.6,0.2,0.9c-0.5,0.9-1,1.6-1.7,2.4
			c-0.2,0.2-0.6,0.3-0.9,0.2l-4.4-3c-0.3-0.2-0.3-0.6-0.2-0.9c0.5-0.9,1-1.6,1.7-2.4C21.5,36.3,21.9,36.2,22.2,36.4L22.2,36.4
			L22.2,36.4z M20.4,41.8c1,0,1.8,0.8,1.8,1.8c0,1-0.8,1.8-1.8,1.8c-1,0-1.8-0.8-1.8-1.8C18.5,42.6,19.3,41.8,20.4,41.8L20.4,41.8
			L20.4,41.8z M19,26.7c1.1-1.9,2.3-2.8,3.5-2.8c1.5,0,2.7-0.4,3.6-1.5c0.6,2.1-0.2,3.3-2.5,3.6c-0.8,0.1-1.3,0.5-1.9,0.8
			C20.7,27.3,19.7,27.1,19,26.7L19,26.7L19,26.7z M10.9,27.1c-0.2-2.2,0.8-3.8,3-4.1c1.1-0.2,2-0.1,2.9,0.1c1.3,0.3,2.4,0,3-0.8
			c0.3-0.4,0.8-0.6,1.3-0.4c0.6,0.1,0.7,0.8,0.6,1.3c-0.6-0.1-1.1-0.3-1.7,0.6c-0.8,1.3-1.6,2.3-1.9,2.2
			C15.5,25,13.1,25.4,10.9,27.1L10.9,27.1L10.9,27.1z M12.7,35.7c0.5,0.4,0.7,1.2,0.8,1.8c0.1,0.6,0,1.3-0.3,1.6
			c-0.3,0.3-1.1,0.3-1.5,0.3c-0.8,0-1.5-1-1.6-2c-0.1-0.4,0-1,0.2-1.3C10.6,35.5,12.1,35.3,12.7,35.7L12.7,35.7L12.7,35.7z
			 M12.6,45.6c-0.4-1.7,0.2-3.5-1.1-5.2c0.8,0,1.8-0.2,2.6-0.6c0.8,3.4,5.7,5.7,4.5,9.5c-0.4,0.8-2.1,1.1-2.9,0.7
			C14,49.1,13,47.3,12.6,45.6L12.6,45.6z M42.7,57.7c1,0,1.9,0.5,1.9,1.6c0,1.1-0.8,1.6-1.8,1.6c-1,0-1.9-0.6-1.8-1.6
			C41.2,58.4,41.7,57.7,42.7,57.7L42.7,57.7z"/>
	</g>
	<g id="XMLID_57_">
		<path id="XMLID_4_" class="st2" d="M126.3,11.9c-7.7,0-15.4,0-23,0v14l21.1,0.1c2.9,0.3,4.7,1.9,4.7,5c-0.1,3-1.8,4.6-4.5,4.7
			c-2.7,0.1-21.3,0-21.3,0v36.9l14.7,0V50.3h7.9C151.6,50.3,151.9,11.9,126.3,11.9z"/>
		<polygon id="XMLID_3_" class="st2" points="158.9,11.9 174.9,59 156.6,59 164.5,35.6 148.8,35.6 136.4,72.5 195,72.5 174.4,11.9 
					"/>
		<path id="XMLID_2_" class="st2" d="M219.3,11.9c-7,0-13.9,0-20.9,0c0,4.7,0,9.4,0,14.1c5.8,0,11.6,0,17.4,0
			c22.1,0,25.7,34.6-2.7,33.1c0-7.8,0-15.6,0-23.4c-4.9,0-9.8,0-14.7,0c0,12.3,0,24.6,0,36.9c8.9,0,17.9,0.8,26.7,0
			C259.3,69.4,257,11.8,219.3,11.9z"/>
		<rect id="XMLID_1_" x="252.7" y="11.9" class="st2" width="15.4" height="60.6"/>
	</g>
</g>
</svg>
