<?xml version="1.0" encoding="utf-8"?>
<!-- Generator: Adobe Illustrator 16.0.0, SVG Export Plug-In . SVG Version: 6.00 Build 0)  -->
<!DOCTYPE svg PUBLIC "-//W3C//DTD SVG 1.1//EN" "http://www.w3.org/Graphics/SVG/1.1/DTD/svg11.dtd">
<svg version="1.1" id="Layer_1" xmlns="http://www.w3.org/2000/svg" xmlns:xlink="http://www.w3.org/1999/xlink" x="0px" y="0px"
	 width="250px" height="50px" viewBox="0 0 250 50" enable-background="new 0 0 250 50" xml:space="preserve">
<g>
	<rect x="100.004" fill="#65CCEF" width="49.992" height="50"/>
	<path fill="#FFFFFF" d="M137.541,18.451c-0.92,0.409-1.912,0.685-2.949,0.81c1.061-0.636,1.874-1.644,2.258-2.842
		c-0.994,0.589-2.092,1.015-3.264,1.245c-0.936-0.998-2.271-1.622-3.75-1.622c-2.834,0-5.135,2.302-5.135,5.138
		c0,0.403,0.045,0.794,0.132,1.17c-4.27-0.215-8.053-2.258-10.587-5.37c-0.442,0.762-0.697,1.645-0.697,2.586
		c0,1.78,0.907,3.354,2.287,4.275c-0.843-0.026-1.637-0.258-2.328-0.642v0.063c0,2.49,1.77,4.566,4.122,5.037
		c-0.432,0.121-0.886,0.182-1.355,0.182c-0.329,0-0.654-0.03-0.966-0.091c0.653,2.04,2.551,3.526,4.799,3.566
		c-1.759,1.378-3.974,2.199-6.38,2.199c-0.415,0-0.825-0.023-1.226-0.07c2.273,1.456,4.973,2.307,7.875,2.307
		c9.449,0,14.615-7.827,14.615-14.619c0-0.222-0.005-0.444-0.014-0.664C135.982,20.386,136.854,19.482,137.541,18.451"/>
</g>
<g>
	<rect x="-0.004" y="-0.004" fill="#517CBE" width="50" height="50.008"/>
	<path fill="#FFFFFF" d="M18.971,20.767h2.585v-2.511c0-1.109,0.027-2.816,0.833-3.875c0.847-1.121,2.009-1.883,4.011-1.883
		c3.261,0,4.633,0.466,4.633,0.466l-0.646,3.829c0,0-1.076-0.311-2.082-0.311c-1.004,0-1.906,0.36-1.906,1.365v2.921h4.122
		l-0.287,3.741H26.4v12.995h-4.843V24.508h-2.585V20.767z"/>
</g>
<g>
	<rect x="200.005" fill="#434648" width="49.99" height="50"/>
	<path fill="#FFFFFF" d="M220.872,36.198c-2.971,0-5.119-1.88-5.119-4.142c0-2.214,2.664-4.059,5.636-4.025
		c0.692,0.007,1.34,0.119,1.926,0.309c1.611,1.123,2.77,1.755,3.096,3.033c0.062,0.261,0.097,0.526,0.097,0.799
		C226.507,34.432,225.052,36.198,220.872,36.198 M221.652,22.946c-1.992-0.061-3.889-2.231-4.233-4.851
		c-0.344-2.619,0.995-4.624,2.987-4.565c1.994,0.061,3.891,2.162,4.234,4.781C224.985,20.93,223.647,23.007,221.652,22.946
		 M225.788,26.826c-0.699-0.497-2.037-1.701-2.037-2.409c0-0.831,0.238-1.239,1.487-2.216c1.28-1,2.185-2.407,2.185-4.043
		c0-1.947-0.868-3.845-2.495-4.472h2.454l1.733-1.251h-7.74c-3.472,0-6.737,2.629-6.737,5.674c0,3.114,2.364,5.626,5.896,5.626
		c0.246,0,0.484-0.005,0.717-0.021c-0.228,0.438-0.393,0.933-0.393,1.443c0,0.866,0.466,1.569,1.054,2.141
		c-0.445,0-0.874,0.014-1.341,0.014c-4.3,0-7.607,2.736-7.607,5.577c0,2.796,3.626,4.545,7.925,4.545c4.9,0,7.608-2.781,7.608-5.577
		C228.496,29.614,227.834,28.271,225.788,26.826 M237.052,23.174h-3.014v-3.013h-2.426v3.013h-3.014V25.6h3.014v3.013h2.426V25.6
		h3.014V23.174z"/>
</g>
<g>
	<rect x="150.005" fill="#7CCFDB" width="49.99" height="50"/>
	<path fill="#FFFFFF" d="M187.494,19.78c-0.109,2.431-1.812,5.755-5.095,9.972c-3.398,4.411-6.277,6.614-8.629,6.614
		c-1.455,0-2.688-1.341-3.697-4.033c-0.673-2.466-1.343-4.933-2.017-7.395c-0.749-2.693-1.552-4.036-2.409-4.036
		c-0.187,0-0.84,0.392-1.961,1.177l-1.177-1.515c1.232-1.081,2.446-2.166,3.644-3.246c1.641-1.421,2.874-2.166,3.697-2.243
		c1.938-0.188,3.136,1.138,3.587,3.976c0.48,3.064,0.818,4.971,1.005,5.717c0.562,2.541,1.177,3.807,1.849,3.807
		c0.521,0,1.307-0.818,2.354-2.463c1.045-1.645,1.604-2.894,1.68-3.755c0.149-1.419-0.41-2.125-1.68-2.125
		c-0.598,0-1.215,0.126-1.849,0.392c1.233-3.997,3.586-5.94,7.059-5.827C186.43,14.871,187.644,16.534,187.494,19.78z"/>
</g>
<g>
	<rect x="50.005" y="0.005" fill="#1187C9" width="49.99" height="49.99"/>
	<path fill="#FFFFFF" d="M67.983,35.451h-4.873V19.856h4.873V35.451z M65.421,17.905h-0.035c-1.763,0-2.906-1.192-2.906-2.702
		c0-1.542,1.178-2.708,2.975-2.708c1.797,0,2.904,1.164,2.939,2.704C68.395,16.709,67.253,17.905,65.421,17.905z M87.477,35.451
		h-5.524v-8.07c0-2.112-0.864-3.553-2.764-3.553c-1.456,0-2.262,0.972-2.638,1.91c-0.141,0.336-0.121,0.803-0.121,1.274v8.439
		h-5.472c0,0,0.07-14.296,0-15.595h5.472v2.447c0.325-1.07,2.073-2.598,4.866-2.598c3.461,0,6.182,2.243,6.182,7.074V35.451z"/>
</g>
</svg>
